<?xml version="1.0" encoding="utf-8"?>
<!-- Generator: Adobe Illustrator 24.0.1, SVG Export Plug-In . SVG Version: 6.00 Build 0)  -->
<svg version="1.1" id="Layer_1" xmlns="http://www.w3.org/2000/svg" xmlns:xlink="http://www.w3.org/1999/xlink" x="0px" y="0px"
	 viewBox="0 0 531.38 162.81" style="enable-background:new 0 0 531.38 162.81;" xml:space="preserve">
<style type="text/css">
	.st0{fill:#F16522;}
</style>
<g>
	<polygon points="531.38,63.66 499.16,89.57 531.38,115.8 531.26,162.81 492.13,162.81 492.13,126.24 447.13,89.57 492.13,53.47 
		492.13,38.96 484.78,32.94 429.48,32.79 429.46,162.81 391.71,162.81 391.72,0.02 508.45,0.04 531.29,18.58 	"/>
	<polygon points="107.97,0 233.71,0 233.48,32.67 144.34,32.67 144.34,66.04 221.39,66.04 204.59,98.71 144.34,98.71 144.34,162.81 
		107.97,162.81 	"/>
	<polygon points="386.71,0 335.66,81.21 386.71,162.81 341.99,162.81 313.07,117.13 284.6,162.81 238.29,162.81 290.14,81.21 
		238.29,0 284.6,0 313.07,45.28 341.99,0 	"/>
</g>
<path class="st0" d="M86.24,162.78L86.19,0L0,0.03l0.05,162.78L86.24,162.78z M58.35,148.92l-32.17-47.89l9.55-14.19l22.61,33.5
	l7.92-11.75l0.01,28.6L58.35,148.92z M58.3,14.73l7.92,11.69l0.02,71.63l-7.92,11.75l-7.92-11.74l-0.02-71.57L58.3,14.73z
	 M44.5,35.22l0.02,54.11L35.73,76.3l-13.1,19.45l-9.36-13.93L44.5,35.22z"/>
<g>
	<polygon points="58.35,148.92 26.18,101.04 35.73,86.85 58.34,120.35 66.26,108.6 66.27,137.2 	"/>
	<polygon points="58.3,14.73 66.23,26.42 66.25,98.05 58.34,109.81 50.41,98.06 50.39,26.49 	"/>
	<polygon points="44.5,35.22 44.52,89.33 35.73,76.3 22.63,95.75 13.27,81.83 	"/>
</g>
</svg>
